{"asset":{"version":"2.0","generator":"VECTARY"},"nodes":[{"translation":[0.5080211308413946,-0.01412041522189179,-0.29938026946128576],"scale":[0.001,0.001,0.001],"rotation":[-0.5043515349696333,0,0,0.8634984245346224],"name":"Spot Light","extensions":{"KHR_lights_punctual":{"light":0}}},{"translation":[-0.09290963910084617,0.15473042284514102,0.18534378553218595],"scale":[1,0.9999999999999998,1],"rotation":[-0.22552466948341987,-0.2239833899729391,-0.053361268332494216,0.9466375438955359],"name":"Camera","camera":0},{"translation":[-0.18215796099219744,0.1462071287741191,0.1701839306299915],"scale":[1,1,1],"rotation":[-0.16796582806092714,-0.39158471657406113,-0.07294021615908755,0.9017364444315674],"name":"Camera 1","camera":1},{"translation":[0,0,0],"scale":[0.0012855517991453129,0.0012855517991453129,0.0012855517991453129],"rotation":[-0.7071067811865476,0,0,0.7071067811865476],"name":"Sphere","mesh":0}],"extensions":{"KHR_lights_punctual":{"lights":[{"name":"Spot Light","type":"spot","intensity":0.4,"range":10000,"color":[1,1,1],"spot":{"innerConeAngle":0.667588438887831,"outerConeAngle":0.7853981633974483}}]}},"cameras":[{"name":"Camera","type":"perspective","extras":{"targetDistance":0.23227781026782326},"perspective":{"aspectRatio":1.5095652173913043,"yfov":0.6108652381980153,"zfar":28.78943573375066,"znear":0.01069390282108558}},{"name":"Camera 1","type":"perspective","extras":{"targetDistance":0.26720760556956036},"perspective":{"aspectRatio":1.5095652173913043,"yfov":0.6108652381980153,"zfar":30.116900701713465,"znear":0.010798702686977378}}],"materials":[{"pbrMetallicRoughness":{"baseColorFactor":[1,1,1,1],"baseColorTexture":{"index":0,"extensions":{"KHR_texture_transform":{"offset":[0,0],"scale":[1,1],"rotation":0}},"texCoord":0},"metallicFactor":0,"roughnessFactor":0.2},"name":"Skyline","emissiveFactor":[0,0,0],"extensions":{},"alphaMode":"OPAQUE","doubleSided":false}],"textures":[{"sampler":0,"source":0}],"images":[{"uri":"11433.jpg","mimeType":"image/jpeg"}],"samplers":[{"wrapS":10497,"wrapT":10497}],"meshes":[{"primitives":[{"mode":4,"attributes":{"POSITION":1,"NORMAL":2,"TEXCOORD_0":3},"material":0,"indices":0}]}],"accessors":[{"bufferView":0,"byteOffset":0,"componentType":5125,"count":11904,"type":"SCALAR"},{"bufferView":1,"byteOffset":0,"componentType":5126,"count":2143,"max":[50,50,100],"min":[-50,-50,0],"type":"VEC3"},{"bufferView":2,"byteOffset":0,"componentType":5126,"count":2143,"type":"VEC3"},{"bufferView":3,"byteOffset":0,"componentType":5126,"count":2143,"type":"VEC2"}],"bufferViews":[{"buffer":0,"byteOffset":0,"byteLength":47616,"target":34963},{"buffer":0,"byteOffset":47616,"byteLength":25716,"target":34962},{"buffer":0,"byteOffset":73332,"byteLength":25716,"target":34962},{"buffer":0,"byteOffset":99048,"byteLength":17144,"target":34962}],"scene":0,"scenes":[{"nodes":[0,1,2,3],"name":"Project Name"}],"extensionsUsed":["KHR_texture_transform","KHR_lights_punctual"],"extensionsRequired":["KHR_lights_punctual"],"buffers":[{"byteLength":116192,"uri":"ProjectName.bin"}]}